<?xml version="1.0" standalone="no"?><svg xmlns="http://www.w3.org/2000/svg" viewBox="0 0 1440 320"><path fill="#0099ff" fill-opacity="1" d="M0,192L15,165.3C30,139,60,85,90,69.3C120,53,150,75,180,80C210,85,240,75,270,96C300,117,330,171,360,170.7C390,171,420,117,450,101.3C480,85,510,107,540,101.3C570,96,600,64,630,90.7C660,117,690,203,720,202.7C750,203,780,117,810,74.7C840,32,870,32,900,58.7C930,85,960,139,990,154.7C1020,171,1050,149,1080,128C1110,107,1140,85,1170,69.3C1200,53,1230,43,1260,69.3C1290,96,1320,160,1350,170.7C1380,181,1410,139,1425,117.3L1440,96L1440,320L1425,320C1410,320,1380,320,1350,320C1320,320,1290,320,1260,320C1230,320,1200,320,1170,320C1140,320,1110,320,1080,320C1050,320,1020,320,990,320C960,320,930,320,900,320C870,320,840,320,810,320C780,320,750,320,720,320C690,320,660,320,630,320C600,320,570,320,540,320C510,320,480,320,450,320C420,320,390,320,360,320C330,320,300,320,270,320C240,320,210,320,180,320C150,320,120,320,90,320C60,320,30,320,15,320L0,320Z"></path></svg>